<svg id="Capa_1" enable-background="new 0 0 511.987 511.987" height="512" viewBox="0 0 511.987 511.987" width="512" xmlns="http://www.w3.org/2000/svg"><g id="XMLID_311_"><ellipse id="XMLID_312_" cx="187.902" cy="217.341" rx="14.522" ry="14.522" transform="matrix(.973 -.233 .233 .973 -45.422 49.698)"/><ellipse id="XMLID_321_" cx="136.487" cy="253.961" rx="10.997" ry="10.997" transform="matrix(.866 -.5 .5 .866 -108.695 102.268)"/><ellipse id="XMLID_331_" cx="178.279" cy="287.869" rx="11.997" ry="11.997" transform="matrix(.445 -.895 .895 .445 -158.856 319.359)"/><path id="XMLID_1221_" d="m458.317 480.521c-1.43-5.334-6.91-8.502-12.248-7.071-14.093 3.776-28.637-4.618-32.414-18.714l-29.063-108.465c19.241-7.68 35.173-22.189 44.555-40.904 10.888-21.719 11.97-47.118 2.968-69.684l-58.668-147.07c-1.878-4.708-6.978-7.268-11.876-5.954l-105.578 28.289-105.577-28.289c-4.898-1.311-9.999 1.247-11.876 5.954l-58.668 147.07c-9.002 22.566-7.92 47.965 2.968 69.684 9.382 18.715 25.314 33.223 44.555 40.904l-29.064 108.464c-3.777 14.097-18.321 22.492-32.414 18.714-5.336-1.432-10.818 1.736-12.248 7.071s1.736 10.818 7.071 12.248c.016.004.03.008.045.012l70.401 18.864c.867.232 1.738.343 2.595.343 4.415 0 8.456-2.947 9.653-7.414 1.43-5.335-1.736-10.818-7.071-12.248l-.021-.005c-6.819-1.833-12.518-6.209-16.049-12.326-3.535-6.122-4.474-13.254-2.644-20.083l29.064-108.469c4.053.587 8.127.889 12.192.889 16.494 0 32.82-4.792 46.845-14.031 20.289-13.365 33.925-34.82 37.413-58.864l12.831-88.465 12.831 88.465c3.487 24.044 17.124 45.499 37.413 58.864 14.027 9.239 30.35 14.031 46.845 14.031 4.064 0 8.138-.302 12.192-.889l29.064 108.469c1.83 6.828.891 13.96-2.644 20.083-3.531 6.116-9.23 10.493-16.049 12.326l-.021.005c-5.334 1.429-8.5 6.913-7.071 12.248 1.197 4.468 5.237 7.414 9.653 7.414.856 0 1.728-.111 2.595-.343l70.401-18.864c.016-.004.03-.008.045-.012 5.333-1.429 8.499-6.912 7.069-12.247zm-100.152-376.243 24.257 60.808h-109.973l-5.283-36.425zm-204.342 0 90.999 24.383-5.283 36.425h-109.974zm40.926 217.321c-15.522 10.224-34.721 13.329-52.673 8.519-17.954-4.811-33.027-17.099-41.357-33.714s-9.158-36.046-2.271-53.31l23.14-58.007h115.051l-13.268 91.48c-2.668 18.394-13.101 34.808-28.622 45.032zm122.49 0c-15.521-10.225-25.954-26.638-28.622-45.033l-13.268-91.48h115.051l23.14 58.007c6.887 17.264 6.059 36.695-2.271 53.31s-23.404 28.904-41.357 33.714c-17.953 4.812-37.151 1.706-52.673-8.518z"/><ellipse id="XMLID_1229_" cx="367.644" cy="277.133" rx="14.522" ry="14.522" transform="matrix(.885 -.466 .466 .885 -86.765 203.121)"/><path id="XMLID_1403_" d="m365.419 229.479c5.333-1.429 8.498-6.911 7.069-12.244s-6.911-8.498-12.244-7.069-8.498 6.911-7.069 12.244 6.911 8.498 12.244 7.069z"/><ellipse id="XMLID_1406_" cx="319.639" cy="248.201" rx="11.997" ry="11.997" transform="matrix(.106 -.994 .994 .106 39.016 539.789)"/><path id="XMLID_1743_" d="m245.341 86.52c2.972 2.972 6.876 4.458 10.78 4.458s7.808-1.486 10.78-4.458l29.444-29.444c6.317-6.316 9.795-14.715 9.795-23.647 0-8.933-3.479-17.332-9.795-23.648-10.883-10.882-27.458-12.683-40.224-5.402-12.764-7.281-29.342-5.479-40.224 5.402-6.317 6.316-9.795 14.715-9.795 23.648s3.479 17.331 9.795 23.647zm-15.302-62.598c2.621-2.621 6.063-3.931 9.505-3.931s6.884 1.31 9.505 3.931c3.905 3.905 10.237 3.905 14.143 0 5.242-5.243 13.77-5.242 19.01 0 2.539 2.539 3.937 5.915 3.937 9.505s-1.398 6.966-3.938 9.505l-26.082 26.082-26.082-26.083c-2.539-2.539-3.937-5.915-3.937-9.505.002-3.589 1.4-6.964 3.939-9.504z"/></g></svg>