<svg id="Capa_1" enable-background="new 0 0 512.003 512.003" height="512" viewBox="0 0 512.003 512.003" width="512" xmlns="http://www.w3.org/2000/svg"><g><path d="m256.001 139.937c8.291 0 15-6.709 15-15v-60c0-8.291-6.709-15-15-15s-15 6.709-15 15v60c0 8.291 6.709 15 15 15z"/><path d="m185.396 150.543c5.859 5.859 15.351 5.86 21.211 0 5.859-5.859 5.859-15.352 0-21.211l-45-45c-5.859-5.859-15.352-5.859-21.211 0s-5.859 15.352 0 21.211z"/><path d="m326.607 150.543 45-45c5.859-5.859 5.859-15.352 0-21.211s-15.352-5.859-21.211 0l-45 45c-5.859 5.859-5.859 15.352 0 21.211s15.351 5.859 21.211 0z"/><path d="m478.657 314.693c20.607-10.771 33.545-31.872 33.344-53.756-.084-9.175-3.385-18.488-7.943-27.235-15.501-29.568-51.816-40.6-80.975-25.356l-20.891-39.961c-1.846-3.516-5.01-6.167-8.818-7.354-3.809-1.216-7.939-.806-11.455 1.025l-125.918 65.944-125.918-65.944c-3.545-1.846-7.646-2.285-11.455-1.025-3.809 1.187-6.973 3.838-8.818 7.354l-20.896 39.972c-29.264-15.285-65.509-4.161-80.969 25.36-4.462 8.553-7.862 17.844-7.943 27.221-.054 6.201 1.959 12.439 3.871 18.526 4.805 15.293 15.264 27.803 29.443 35.215l.126.066-20.781 39.865c-11.602 21.855-3.164 49.116 18.896 60.835l79.922 41.748c21.945 11.17 49.07 2.475 60.615-19.307l28.145-53.839c-14.843 2.557-29.327 2.665-47.51-6.923-31.358-15.997-46.968-53.079-37.148-86.953l-41.221-21.547c-4.622-2.406-8.45-5.817-11.904-9.538l-15.143 29.05-.082-.044c-14.648-7.661-20.361-25.825-12.686-40.474 7.478-14.391 25.492-20.539 40.488-12.671 3.11 1.632 82.826 43.469 79.717 41.836l-6.797 13.022c-11.899 22.365-2.807 49.771 18.809 60.791 21.979 11.619 49.16 3.023 60.85-18.911l28.389-54.346 28.447 54.448c11.638 21.852 38.822 30.424 60.586 18.911 22.016-11.22 30.812-38.587 19.072-60.82l-6.855-13.096c3.02-1.585 82.737-43.436 79.717-41.851 14.843-7.696 32.886-1.931 40.488 12.671 7.676 14.663 1.963 32.827-12.715 40.503l-.051.027-15.15-29.061c-3.463 3.739-7.295 7.161-11.927 9.58l-41.191 21.504c9.566 32.999-4.801 70.47-37.764 87.275-22.316 11.799-39.121 7.995-46.86 6.669l28.169 53.873c11.421 21.58 38.531 30.43 60.674 19.16l79.805-41.689c.029-.015.059-.029.088-.059 21.973-11.66 30.41-38.921 18.867-60.674l-20.837-39.97z"/></g></svg>