<?xml version="1.0" encoding="UTF-8"?>
<svg xmlns="http://www.w3.org/2000/svg" id="Outline" viewBox="0 0 512 512" width="512" height="512"><circle cx="144" cy="168" r="8"/><circle cx="208" cy="168" r="8"/><path d="M176,192a8,8,0,0,0,8-8V168a8,8,0,0,0-16,0v16A8,8,0,0,0,176,192Z"/><path d="M472,176H431.978a39.841,39.841,0,0,0,7.217-16H448a24,24,0,0,0,0-48H352a8,8,0,0,0-8,8v32a39.788,39.788,0,0,0,8.022,24H312a8,8,0,0,0-8,8v32a8,8,0,0,0,8,8h57.376A23.889,23.889,0,0,0,368,232v16a24.027,24.027,0,0,1-24,24H224V237.608a72.2,72.2,0,0,0,19.938-29.8A40.054,40.054,0,0,0,280,168V104a72.081,72.081,0,0,0-72-72H144a72.081,72.081,0,0,0-72,72v64a40.054,40.054,0,0,0,36.062,39.8A72.2,72.2,0,0,0,128,237.608V272H104a72.081,72.081,0,0,0-72,72v16a8,8,0,0,0,8,8h8V488a8,8,0,0,0,8,8H248a8,8,0,0,0,8-8V368h56a8,8,0,0,0,8-8V336h40a72.081,72.081,0,0,0,72-72V232a23.889,23.889,0,0,0-1.376-8H472a8,8,0,0,0,8-8V184A8,8,0,0,0,472,176ZM240,352H224V288h16Zm-96-49.376A23.885,23.885,0,0,0,152,304h48a23.885,23.885,0,0,0,8-1.376V352H144Zm103.675-111.89c.206-2.218.325-4.462.325-6.734V145.376a23.994,23.994,0,0,1-.325,45.358ZM88,168a24.039,24.039,0,0,1,16-22.624V184c0,2.272.118,4.516.325,6.734A24.037,24.037,0,0,1,88,168Zm24-72a8,8,0,0,0-8,8v24.805a39.841,39.841,0,0,0-16,7.217V104a56.063,56.063,0,0,1,56-56h64a56.063,56.063,0,0,1,56,56v32.022a39.841,39.841,0,0,0-16-7.217V104a8,8,0,0,0-16,0,24.039,24.039,0,0,1-16,22.624V120a8,8,0,0,0-16,0v8H184v-8a8,8,0,0,0-16,0v8H152v-8a8,8,0,0,0-16,0v6.624A24.039,24.039,0,0,1,120,104,8,8,0,0,0,112,96Zm8,88V135.981A39.794,39.794,0,0,0,144,144h64a39.794,39.794,0,0,0,24-8.019V184a56,56,0,0,1-112,0Zm56,72a71.537,71.537,0,0,0,32-7.528V280a8.009,8.009,0,0,1-8,8H152a8.009,8.009,0,0,1-8-8V248.472A71.537,71.537,0,0,0,176,256Zm-48,32v64H112V288ZM48,344a56.078,56.078,0,0,1,48-55.419V352H48Zm16,24H96V480H64ZM240,480H112V368H240Zm64-128H256V288h48ZM456,136a8.009,8.009,0,0,1-8,8h-8V128h8A8.009,8.009,0,0,1,456,136Zm-96,16V128h64v24a24.027,24.027,0,0,1-24,24H384A24.027,24.027,0,0,1,360,152Zm56,80v32a56.063,56.063,0,0,1-56,56H320V288h24a40.045,40.045,0,0,0,40-40V232a8.009,8.009,0,0,1,8-8h16A8.009,8.009,0,0,1,416,232Zm48-24H320V192H464Z"/><path d="M376,56h64a8,8,0,0,1,0,16H408a24.027,24.027,0,0,0-24,24,8,8,0,0,0,16,0,8.009,8.009,0,0,1,8-8h32a24,24,0,0,0,0-48H376a8.009,8.009,0,0,1-8-8V24a8,8,0,0,0-16,0v8A24.027,24.027,0,0,0,376,56Z"/></svg>
